<svg width="265" height="271" viewBox="0 0 265 271" fill="none" xmlns="http://www.w3.org/2000/svg">
<path opacity="0.2" fill-rule="evenodd" clip-rule="evenodd" d="M214.673 75.7541L219.838 50.1345C223.474 32.1012 205.102 17.567 188.39 25.2549L164.646 36.1771C154.472 40.8573 142.424 38.1569 135.221 29.5816L118.411 9.56948C106.579 -4.51672 83.7615 0.784927 79.352 18.6448L73.0874 44.0181C70.403 54.8908 60.7801 62.6263 49.5846 62.9113L23.4579 63.5763C5.06766 64.0444 -5.01403 85.1897 6.20009 99.7727L22.1318 120.49C28.9587 129.368 29.0068 141.715 22.2493 150.645L6.47953 171.487C-4.6206 186.157 5.62564 207.223 24.0189 207.547L50.1501 208.009C61.3474 208.207 71.0303 215.867 73.7994 226.718L80.2615 252.042C84.81 269.867 107.669 274.991 119.391 260.813L136.044 240.67C143.18 232.039 155.206 229.245 165.416 233.846L189.244 244.582C206.016 252.14 224.274 237.463 220.498 219.458L215.133 193.88C212.834 182.919 218.148 171.775 228.111 166.66L251.362 154.725C267.728 146.324 267.637 122.899 251.206 114.625L227.863 102.872C217.86 97.8353 212.46 86.7324 214.673 75.7541ZM220.999 50.3685C224.826 31.386 205.487 16.0869 187.895 24.1795L164.151 35.1016C154.462 39.559 142.988 36.9871 136.128 28.8202L119.318 8.80807C106.863 -6.0195 82.8443 -0.438832 78.2027 18.3611L71.9381 43.7344C69.3815 54.0893 60.2169 61.4564 49.5545 61.7278L23.4278 62.3929C4.06963 62.8856 -6.54268 85.1438 5.26166 100.494L21.1934 121.212C27.6952 129.667 27.741 141.426 21.3053 149.931L5.53551 170.772C-6.14884 186.214 4.63666 208.389 23.9981 208.731L50.1291 209.192C60.7933 209.381 70.0151 216.676 72.6523 227.011L79.1144 252.335C83.9024 271.098 107.964 276.491 120.303 261.567L136.956 241.424C143.752 233.204 155.206 230.543 164.93 234.925L188.758 245.662C206.413 253.617 225.632 238.167 221.657 219.215L216.292 193.637C214.102 183.198 219.163 172.584 228.652 167.713L251.903 155.778C269.13 146.935 269.034 122.277 251.738 113.568L228.395 101.814C218.868 97.0178 213.725 86.4436 215.833 75.9881L220.999 50.3685Z" fill="#FF4235"/>
</svg>
