<svg width="324" height="317" viewBox="0 0 324 317" fill="none" xmlns="http://www.w3.org/2000/svg">
<path fill-rule="evenodd" clip-rule="evenodd" d="M199.684 44.6046L185.505 16.7164C175.525 -2.91378 147.483 -2.91376 137.503 16.7164L123.324 44.6046C117.249 56.5549 103.933 62.9676 90.8013 60.2668L60.1571 53.964C38.5872 49.5276 21.1032 71.4518 30.2281 91.4937L43.1919 119.967C48.7469 132.168 45.4581 146.577 35.1594 155.16L11.1254 175.189C-5.7918 189.287 0.448182 216.626 21.8069 221.987L52.151 229.605C65.1536 232.869 74.3686 244.424 74.6575 257.827L75.3317 289.105C75.8063 311.122 101.071 323.289 118.58 309.933L143.455 290.958C154.114 282.827 168.894 282.827 179.553 290.958L204.427 309.933C221.936 323.289 247.202 311.122 247.676 289.105L248.35 257.827C248.639 244.424 257.854 232.869 270.857 229.605L301.201 221.987C322.56 216.626 328.8 189.287 311.882 175.189L287.848 155.16C277.55 146.577 274.261 132.168 279.816 119.967L292.78 91.4938C301.905 71.4518 284.421 49.5276 262.851 53.964L232.207 60.2668C219.075 62.9676 205.759 56.5549 199.684 44.6046ZM186.768 16.0741C176.263 -4.58918 146.745 -4.58915 136.24 16.0742L122.061 43.9624C116.275 55.3436 103.593 61.4509 91.0868 58.8787L60.4426 52.576C37.7374 47.906 19.3332 70.9842 28.9384 92.0809L41.9021 120.554C47.1927 132.174 44.0605 145.897 34.2521 154.071L10.2182 174.1C-7.5894 188.94 -1.021 217.718 21.4619 223.362L51.8059 230.979C64.1894 234.088 72.9656 245.093 73.2407 257.858L73.9149 289.136C74.4145 312.311 101.009 325.118 119.44 311.06L144.315 292.085C154.466 284.341 168.542 284.341 178.693 292.085L203.568 311.06C221.999 325.118 248.593 312.311 249.093 289.136L249.767 257.858C250.042 245.093 258.818 234.088 271.202 230.979L301.546 223.362C324.029 217.718 330.597 188.94 312.79 174.1L288.756 154.071C278.947 145.897 275.815 132.174 281.106 120.554L294.069 92.081C303.675 70.9842 285.27 47.906 262.565 52.576L231.921 58.8787C219.415 61.4509 206.733 55.3436 200.947 43.9623L186.768 16.0741Z" fill="#FF4235"/>
</svg>
